<svg id="Layer_1" data-name="Layer 1" xmlns="http://www.w3.org/2000/svg" viewBox="0 0 80 80"><defs><style>.cls-1{fill:#ee2424;}</style></defs><path class="cls-1" d="M68.51,36.35c-3.5-.63-10.78-2-13.89-7.52-1.8-3.21-1.65-6.49-1-9.72,1.39-7.41,4.34-11.9,7.17-16L59.6,2.09C56.55,7,53.06,12,47.9,16.21c-2.53,2.08-4.16,3.47-7.62,3.48s-5.08-1.4-7.62-3.48C27.5,12,24,7,21,2.09L19.81,3.14c2.84,4.07,5.79,8.56,7.18,16,.61,3.23.76,6.51-1,9.72-3.11,5.55-10.4,6.89-13.89,7.52a33.08,33.08,0,0,1-8.49.35v1.62a34.26,34.26,0,0,1,8.15.47C15.37,39.48,23,40.94,26,46.31c2.65,4.8.39,10.58-2.67,18.4a58.82,58.82,0,0,1-6.48,12.15l1.85,1A52.69,52.69,0,0,1,26.3,65.4c5.07-6.46,8.9-10.06,14-10.06s8.92,3.59,14,10.06a52.59,52.59,0,0,1,7.63,12.51l1.86-1a58.86,58.86,0,0,1-6.49-12.15c-3.05-7.82-5.31-13.6-2.66-18.4,3-5.37,10.59-6.83,14.24-7.52a29.57,29.57,0,0,1,7.57-.47V36.71A29.21,29.21,0,0,1,68.51,36.35Z"/></svg>