<svg id="Layer_1" data-name="Layer 1" xmlns="http://www.w3.org/2000/svg" viewBox="0 0 80 80"><defs><style>.cls-1{fill:#3b9946;}</style></defs><path class="cls-1" d="M23.3,16.94h.6l.23,0c.35,0,.7.05,1,.1A15.26,15.26,0,0,1,29,18.21a27.25,27.25,0,0,1,6.73,4.28,44.12,44.12,0,0,1,4.13,4,1.13,1.13,0,0,1,.11.22l.24-.25a42.3,42.3,0,0,1,5.5-5A24.4,24.4,0,0,1,52,17.82,13.22,13.22,0,0,1,55.35,17l.75-.09h.6l.21,0c.37,0,.74.06,1.11.13a5.92,5.92,0,0,1,3.2,1.62A6.48,6.48,0,0,1,63,23.17a10.87,10.87,0,0,1-.34,3.16,19,19,0,0,1-2.26,5.3A36.38,36.38,0,0,1,54,39.47l-.56.54a1.56,1.56,0,0,0,.13.13c.7.69,1.42,1.37,2.1,2.07A33.92,33.92,0,0,1,60.16,48a18.75,18.75,0,0,1,2.69,6.54,9.45,9.45,0,0,1,0,3.82,5.71,5.71,0,0,1-3.36,4.16,8.43,8.43,0,0,1-4.84.43,16,16,0,0,1-4.55-1.52,30.13,30.13,0,0,1-7.12-5c-1-.89-1.88-1.85-2.8-2.78-.12-.13-.19-.13-.3,0-.27.3-.56.59-.84.89a37,37,0,0,1-6.74,5.61A20,20,0,0,1,27,62.54a10.38,10.38,0,0,1-5.1.34,5.87,5.87,0,0,1-3.16-1.69A6.45,6.45,0,0,1,17,56.86a11.49,11.49,0,0,1,.46-3.64,21.09,21.09,0,0,1,2.89-6,39.54,39.54,0,0,1,5.59-6.52l.71-.67-.26-.23a39.32,39.32,0,0,1-5.76-6.52,22.05,22.05,0,0,1-3.1-6.19,10.84,10.84,0,0,1-.38-5.15A5.87,5.87,0,0,1,22.53,17Z"/></svg>